<svg width="185" height="30" viewBox="0 0 185 30" fill="none" xmlns="http://www.w3.org/2000/svg">
<path d="M8.5 12C13.1944 12 17 15.5817 17 20C17 24.4183 13.1944 28 8.5 28C3.80558 28 -1.56562e-07 24.4183 -3.49691e-07 20C-5.4282e-07 15.5817 3.80558 12 8.5 12Z" fill="url(#paint0_radial)"/>
<path d="M8.5 8C13.1944 8 17 11.5817 17 16C17 20.4183 13.1944 24 8.5 24C3.80558 24 -1.56562e-07 20.4183 -3.49691e-07 16C-5.4282e-07 11.5817 3.80558 8 8.5 8Z" fill="url(#paint1_radial)"/>
<path d="M8.5 4C13.1944 4 17 7.58172 17 12C17 16.4183 13.1944 20 8.5 20C3.80558 20 -1.56562e-07 16.4183 -3.49691e-07 12C-5.4282e-07 7.58172 3.80558 4 8.5 4Z" fill="url(#paint2_radial)"/>
<path d="M30.776 24V12H38.648V14.352H33.416V24H30.776ZM43.4707 29.016H40.8307V12H43.4707V13.608C43.8387 13.096 44.3667 12.664 45.0547 12.312C45.7587 11.944 46.5187 11.76 47.3347 11.76C48.9667 11.76 50.3347 12.368 51.4387 13.584C52.5587 14.8 53.1187 16.272 53.1187 18C53.1187 19.728 52.5587 21.2 51.4387 22.416C50.3347 23.632 48.9667 24.24 47.3347 24.24C46.5187 24.24 45.7587 24.064 45.0547 23.712C44.3667 23.344 43.8387 22.904 43.4707 22.392V29.016ZM46.8547 21.84C47.8947 21.84 48.7507 21.472 49.4227 20.736C50.0947 20 50.4307 19.088 50.4307 18C50.4307 16.912 50.0947 16 49.4227 15.264C48.7507 14.528 47.8947 14.16 46.8547 14.16C45.7987 14.16 44.9347 14.528 44.2627 15.264C43.5907 16 43.2547 16.912 43.2547 18C43.2547 19.088 43.5907 20 44.2627 20.736C44.9347 21.472 45.7987 21.84 46.8547 21.84ZM65.6953 22.44C64.4953 23.64 63.0073 24.24 61.2313 24.24C59.4553 24.24 57.9593 23.64 56.7433 22.44C55.5433 21.224 54.9433 19.744 54.9433 18C54.9433 16.256 55.5433 14.784 56.7433 13.584C57.9593 12.368 59.4553 11.76 61.2313 11.76C63.0073 11.76 64.4953 12.368 65.6953 13.584C66.9113 14.784 67.5193 16.256 67.5193 18C67.5193 19.744 66.9113 21.224 65.6953 22.44ZM61.2313 21.792C62.2713 21.792 63.1273 21.432 63.7993 20.712C64.4873 19.976 64.8313 19.072 64.8313 18C64.8313 16.928 64.4873 16.032 63.7993 15.312C63.1273 14.576 62.2713 14.208 61.2313 14.208C60.1753 14.208 59.3033 14.576 58.6153 15.312C57.9433 16.032 57.6073 16.928 57.6073 18C57.6073 19.072 57.9433 19.976 58.6153 20.712C59.3033 21.432 60.1753 21.792 61.2313 21.792ZM75.6464 24.24C73.8384 24.24 72.3264 23.648 71.1104 22.464C69.9104 21.264 69.3104 19.776 69.3104 18C69.3104 16.224 69.9104 14.744 71.1104 13.56C72.3264 12.36 73.8384 11.76 75.6464 11.76C76.8784 11.76 77.9824 12.056 78.9584 12.648C79.9504 13.24 80.7104 14.048 81.2384 15.072L78.9344 16.32C78.6304 15.68 78.1904 15.168 77.6144 14.784C77.0384 14.4 76.3824 14.208 75.6464 14.208C74.5904 14.208 73.7184 14.576 73.0304 15.312C72.3424 16.032 71.9984 16.928 71.9984 18C71.9984 19.072 72.3424 19.976 73.0304 20.712C73.7184 21.432 74.5904 21.792 75.6464 21.792C76.3824 21.792 77.0384 21.6 77.6144 21.216C78.1904 20.832 78.6304 20.32 78.9344 19.68L81.2384 20.928C80.7104 21.952 79.9504 22.76 78.9584 23.352C77.9824 23.944 76.8784 24.24 75.6464 24.24ZM89.123 24.24C87.315 24.24 85.803 23.648 84.587 22.464C83.387 21.264 82.787 19.776 82.787 18C82.787 16.224 83.387 14.744 84.587 13.56C85.803 12.36 87.315 11.76 89.123 11.76C90.355 11.76 91.459 12.056 92.435 12.648C93.427 13.24 94.187 14.048 94.715 15.072L92.411 16.32C92.107 15.68 91.667 15.168 91.091 14.784C90.515 14.4 89.859 14.208 89.123 14.208C88.067 14.208 87.195 14.576 86.507 15.312C85.819 16.032 85.475 16.928 85.475 18C85.475 19.072 85.819 19.976 86.507 20.712C87.195 21.432 88.067 21.792 89.123 21.792C89.859 21.792 90.515 21.6 91.091 21.216C91.667 20.832 92.107 20.32 92.411 19.68L94.715 20.928C94.187 21.952 93.427 22.76 92.435 23.352C91.459 23.944 90.355 24.24 89.123 24.24ZM102.776 12H105.08L109.28 17.472L113.528 12H115.832V24H113.192V16.152L109.304 21.192L105.416 16.152V24H102.776V12ZM124.313 24.24C122.681 24.24 121.305 23.632 120.185 22.416C119.081 21.2 118.529 19.728 118.529 18C118.529 16.272 119.081 14.8 120.185 13.584C121.305 12.368 122.681 11.76 124.313 11.76C125.129 11.76 125.881 11.944 126.569 12.312C127.257 12.664 127.785 13.096 128.153 13.608V12H130.793V24H128.153V22.392C127.785 22.904 127.257 23.344 126.569 23.712C125.881 24.064 125.129 24.24 124.313 24.24ZM122.225 20.736C122.897 21.472 123.753 21.84 124.793 21.84C125.833 21.84 126.689 21.472 127.361 20.736C128.033 20 128.369 19.088 128.369 18C128.369 16.912 128.033 16 127.361 15.264C126.689 14.528 125.833 14.16 124.793 14.16C123.753 14.16 122.897 14.528 122.225 15.264C121.553 16 121.217 16.912 121.217 18C121.217 19.088 121.553 20 122.225 20.736ZM137.01 29.016H134.37V12H137.01V13.608C137.378 13.096 137.906 12.664 138.594 12.312C139.298 11.944 140.058 11.76 140.874 11.76C142.506 11.76 143.874 12.368 144.978 13.584C146.098 14.8 146.658 16.272 146.658 18C146.658 19.728 146.098 21.2 144.978 22.416C143.874 23.632 142.506 24.24 140.874 24.24C140.058 24.24 139.298 24.064 138.594 23.712C137.906 23.344 137.378 22.904 137.01 22.392V29.016ZM140.394 21.84C141.434 21.84 142.29 21.472 142.962 20.736C143.634 20 143.97 19.088 143.97 18C143.97 16.912 143.634 16 142.962 15.264C142.29 14.528 141.434 14.16 140.394 14.16C139.338 14.16 138.474 14.528 137.802 15.264C137.13 16 136.794 16.912 136.794 18C136.794 19.088 137.13 20 137.802 20.736C138.474 21.472 139.338 21.84 140.394 21.84ZM157.29 24L151.986 18.888V24H149.346V12H151.986V17.136L156.714 12H159.93L154.506 17.904L160.794 24H157.29ZM166.958 24.24C165.134 24.24 163.63 23.656 162.446 22.488C161.278 21.32 160.694 19.824 160.694 18C160.694 16.224 161.286 14.744 162.47 13.56C163.654 12.36 165.15 11.76 166.958 11.76C168.622 11.76 169.998 12.288 171.086 13.344C172.19 14.4 172.742 15.856 172.742 17.712C172.742 18.032 172.734 18.32 172.718 18.576H163.286C163.35 19.552 163.726 20.344 164.414 20.952C165.102 21.544 165.958 21.84 166.982 21.84C168.518 21.84 169.662 21.232 170.414 20.016L172.43 21.456C171.278 23.312 169.454 24.24 166.958 24.24ZM163.406 16.656H170.078C169.934 15.824 169.558 15.176 168.95 14.712C168.358 14.232 167.662 13.992 166.862 13.992C166.03 13.992 165.286 14.224 164.63 14.688C163.99 15.152 163.582 15.808 163.406 16.656ZM177.453 24V14.352H173.853V12H183.861V14.352H180.093V24H177.453Z" fill="black"/>
<defs>
<radialGradient id="paint0_radial" cx="0" cy="0" r="1" gradientUnits="userSpaceOnUse" gradientTransform="translate(5.5921 26.1053) rotate(-40.3281) scale(14.9641 15.5542)">
<stop stop-color="#FF5555"/>
<stop offset="1" stop-color="#FFDE31"/>
</radialGradient>
<radialGradient id="paint1_radial" cx="0" cy="0" r="1" gradientUnits="userSpaceOnUse" gradientTransform="translate(1.98333) rotate(62.8176) scale(21.7078 23.0149)">
<stop stop-color="#FF5555"/>
<stop offset="1" stop-color="#FFDE31"/>
</radialGradient>
<radialGradient id="paint2_radial" cx="0" cy="0" r="1" gradientUnits="userSpaceOnUse" gradientTransform="translate(5.59211 18.1053) rotate(-40.3281) scale(14.9641 15.5542)">
<stop stop-color="#FF5555"/>
<stop offset="1" stop-color="#FFDE31"/>
</radialGradient>
</defs>
</svg>
